<svg width="78" height="61" viewBox="0 0 78 61" fill="none" xmlns="http://www.w3.org/2000/svg">
<g id="Layer_x0020_1">
<g id="_3054628939680">
<path id="Vector" fill-rule="evenodd" clip-rule="evenodd" d="M25.1036 23.966V49.6799H32.8637C32.8637 47.172 32.8006 44.6781 32.8006 42.1842C32.8006 41.6709 32.769 41.2648 32.769 40.7389C32.769 40.2459 32.7668 39.7524 32.7694 39.2595C32.7709 38.9933 32.7368 38.8411 32.7374 38.5541L32.7375 31.4617C32.7374 30.4911 32.8039 29.4687 32.8005 28.5037C32.7996 28.2595 32.831 28.138 32.8334 27.9337C32.8513 26.3843 32.9995 22.8292 33.5122 21.4639C33.7848 20.7381 34.2105 20.2432 34.7696 19.8121C34.8789 19.7279 34.9954 19.6407 35.1136 19.5736C36.6098 18.7238 38.4654 18.5366 40.0246 19.3608C40.1619 19.4334 40.3172 19.5283 40.4395 19.6245L40.8056 19.9403C40.8674 20.0008 40.9037 20.0409 40.9574 20.1147C41.024 20.206 41.0519 20.2301 41.1154 20.316C42.0102 21.5256 42.2956 23.4928 42.2956 25.445V49.6799H50.245V27.529C50.245 26.4086 50.6111 25.0148 50.9392 24.2353C51.181 23.6611 51.4759 23.1405 51.8033 22.635C52.2469 21.9501 52.8246 21.3513 53.444 20.8539C55.048 19.5661 57.3367 18.9387 59.2147 19.9544C59.5185 20.1187 59.8018 20.3365 60.0479 20.5791L60.6996 21.3973C60.7681 21.5049 60.8176 21.6063 60.8774 21.712C61.1902 22.2647 61.387 22.8532 61.5444 23.5222C61.8378 24.7689 61.8219 25.9713 61.8219 27.2601C61.8219 28.6158 61.8219 29.9715 61.8219 31.3273C61.9845 31.3129 62.2001 31.187 62.3308 31.13L64.8008 30.031C65.9799 29.5316 67.098 28.9814 68.2708 28.4847L69.652 27.8726C69.7176 27.8347 69.7397 27.8661 69.7397 27.7643C69.7397 23.9311 69.9289 21.2498 68.5546 17.7332C68.4757 17.5314 68.404 17.3885 68.3202 17.2098L67.8056 16.2119C67.217 15.1533 66.3 14.0619 65.3911 13.3394C65.2464 13.2244 65.1173 13.1281 64.9716 13.0133C64.539 12.6724 64.091 12.4206 63.5992 12.1564L62.5754 11.7012C62.216 11.5734 61.8476 11.4427 61.4516 11.3524C59.124 10.8214 56.9708 10.9723 54.7518 11.7602C54.4988 11.8501 54.2754 11.9354 54.0348 12.0382C53.5712 12.2363 53.1606 12.4482 52.7159 12.6832C52.4963 12.7993 52.3108 12.9245 52.106 13.0417C51.2301 13.5433 50.5904 14.1653 49.8664 14.756C49.7665 14.8376 49.7144 14.915 49.6187 14.9964C49.5033 15.0946 49.4586 15.14 49.3538 15.2519C49.1192 15.5023 48.853 15.7326 48.6494 16.0139C48.571 16.1223 48.5134 16.2318 48.3838 16.2687C48.0916 15.6803 47.3327 14.7499 46.8603 14.329C46.7962 14.2719 46.7849 14.2742 46.7198 14.2098C46.0134 13.51 45.1135 12.9123 44.241 12.4814C44.0092 12.367 43.8202 12.28 43.5799 12.1775C43.4575 12.1253 43.3562 12.0815 43.2423 12.033C43.1208 11.9813 42.9974 11.9461 42.868 11.8941C42.4086 11.7095 41.8794 11.5687 41.3748 11.4348C41.1251 11.3686 40.8351 11.3089 40.588 11.2647C38.004 10.8024 35.139 10.8813 32.6547 11.7435C30.7894 12.391 29.2701 13.1981 27.8711 14.747C26.9946 15.7173 26.3434 17.0994 25.9198 18.3484C25.7949 18.7164 25.6678 19.1916 25.5763 19.5959C25.2525 21.0285 25.1036 22.4065 25.1036 23.966Z" fill="white"/>
<path id="Vector_2" fill-rule="evenodd" clip-rule="evenodd" d="M3.21204 2.65543H75.2607V58.016H3.21204V2.65543ZM0.719971 60.6714H77.7527V0H0.719971V60.6714Z" fill="white"/>
<path id="Vector_3" fill-rule="evenodd" clip-rule="evenodd" d="M8.73254 24.2014V49.68H16.6503V25.5459C16.6503 24.0858 16.7528 21.9005 17.5021 20.773C18.2679 19.6206 19.7288 18.8906 21.0666 18.8906C22.0862 18.8906 22.5782 18.9052 23.5627 19.2561C23.8314 19.3518 24.0988 19.4333 24.3655 19.5434C24.5365 19.614 25.0338 19.8171 25.199 19.8317V11.6302L24.4396 11.4646C23.7826 11.3196 22.6639 11.1224 22.0137 11.1252C21.8728 11.1258 21.7095 11.1341 21.5712 11.1261C21.4154 11.1172 21.3283 11.0836 21.1288 11.091C20.9635 11.0972 20.9138 11.1276 20.7203 11.1268C20.5695 11.1261 20.3945 11.1173 20.2463 11.1258C17.7701 11.2683 15.0572 12.0249 13.1426 13.3043C9.75361 15.5686 8.73254 20.0054 8.73254 24.2014Z" fill="white"/>
<path id="Vector_4" fill-rule="evenodd" clip-rule="evenodd" d="M61.8227 34.2179V36.5037C62.005 36.4584 62.1548 36.3687 62.3226 36.2968L64.7701 35.2073C65.9152 34.7224 67.0875 34.1492 68.24 33.6611C68.4115 33.5885 68.57 33.5194 68.7302 33.444L69.7404 33.0079V30.6886C69.5719 30.7304 69.4048 30.8261 69.2446 30.8997L65.7746 32.4459C65.0255 32.7907 62.3442 33.9239 61.8227 34.2179Z" fill="white"/>
<path id="Vector_5" fill-rule="evenodd" clip-rule="evenodd" d="M61.8227 44.537V46.8227C61.9399 46.8123 62.65 46.4807 62.8188 46.4052L67.754 44.2018C68.0776 44.0493 68.4109 43.9161 68.7318 43.7648L69.7404 43.327V41.0077L66.2884 42.5393C65.1491 43.0218 63.9675 43.5988 62.8185 44.0855L61.8227 44.537Z" fill="white"/>
<path id="Vector_6" fill-rule="evenodd" clip-rule="evenodd" d="M61.8227 39.3607L61.8241 41.5817C61.8513 41.7369 61.9207 41.6432 62.0475 41.5847C62.2491 41.4918 62.4549 41.3986 62.647 41.3147C63.9878 40.7297 65.4456 40.0379 66.7616 39.4806C66.9733 39.3909 67.158 39.3131 67.3638 39.2148L69.142 38.4205C69.3345 38.3297 69.5609 38.2519 69.7404 38.1507V35.865C69.593 35.8781 67.5615 36.8128 67.2751 36.9355C67.1101 37.0061 66.9535 37.074 66.786 37.1538C66.4457 37.3159 66.1271 37.4387 65.7866 37.6014L63.8052 38.4817C63.4752 38.623 63.1506 38.7802 62.8273 38.9186L61.8227 39.3607Z" fill="white"/>
<path id="Vector_7" fill-rule="evenodd" clip-rule="evenodd" d="M61.9171 49.6801H69.7401V46.1843C69.6243 46.1946 68.9335 46.5284 68.7486 46.6067L62.8769 49.2239C62.7304 49.2893 62.0229 49.582 61.9171 49.6801Z" fill="white"/>
</g>
</g>
</svg>
