<svg width="111" height="82" viewBox="0 0 111 82" fill="none" xmlns="http://www.w3.org/2000/svg">
<g id="_3054628939680">
<path id="Vector" fill-rule="evenodd" clip-rule="evenodd" d="M35.0645 32.7856V67.2598H46.2234C46.2234 63.8974 46.1327 60.554 46.1327 57.2104C46.1327 56.5223 46.0873 55.9778 46.0873 55.2726C46.0873 54.6118 46.0841 53.9501 46.0879 53.2893C46.09 52.9324 46.041 52.7284 46.0419 52.3436L46.042 42.8349C46.0419 41.5336 46.1374 40.163 46.1325 38.8692C46.1313 38.5418 46.1764 38.379 46.1799 38.105C46.2057 36.0277 46.4188 31.2615 47.1561 29.431C47.5481 28.458 48.1601 27.7944 48.9642 27.2166C49.1214 27.1036 49.2888 26.9868 49.4588 26.8968C51.6104 25.7575 54.2787 25.5065 56.5209 26.6115C56.7183 26.7088 56.9416 26.836 57.1176 26.9651L57.6439 27.3885C57.7328 27.4695 57.785 27.5232 57.8623 27.6222C57.958 27.7446 57.9981 27.777 58.0895 27.8921C59.3762 29.5138 59.7866 32.1512 59.7866 34.7684V67.2598H71.2178V37.5624C71.2178 36.0603 71.7443 34.1917 72.2162 33.1466C72.5639 32.3768 72.988 31.6788 73.4587 31.0011C74.0966 30.0829 74.9274 29.2801 75.8181 28.6132C78.1247 26.8867 81.4158 26.0456 84.1163 27.4073C84.5533 27.6276 84.9606 27.9196 85.3145 28.2448L86.2516 29.3418C86.3502 29.486 86.4213 29.622 86.5073 29.7637C86.9571 30.5047 87.2402 31.2937 87.4665 32.1906C87.8884 33.862 87.8656 35.4741 87.8656 37.2019C87.8656 39.0195 87.8656 40.8371 87.8656 42.6547C88.0993 42.6354 88.4094 42.4667 88.5974 42.3902L92.1493 40.9168C93.8448 40.2472 95.4526 39.5097 97.1391 38.8438L99.1253 38.023C99.2196 37.9723 99.2513 38.0144 99.2513 37.8779C99.2513 32.7388 99.5235 29.1441 97.5471 24.4293C97.4337 24.1588 97.3306 23.9672 97.2101 23.7277L96.4701 22.3899C95.6238 20.9705 94.305 19.5073 92.998 18.5387C92.7899 18.3846 92.6044 18.2554 92.3948 18.1015C91.7728 17.6444 91.1285 17.3069 90.4212 16.9527L88.949 16.3424C88.4323 16.171 87.9025 15.9959 87.333 15.8747C83.9859 15.1628 80.8897 15.3652 77.6987 16.4215C77.3349 16.542 77.0136 16.6563 76.6676 16.7942C76.0009 17.0598 75.4105 17.3438 74.771 17.6589C74.4553 17.8146 74.1885 17.9824 73.894 18.1396C72.6345 18.8121 71.7146 19.6459 70.6734 20.438C70.5298 20.5473 70.4548 20.651 70.3173 20.7602C70.1513 20.8918 70.087 20.9527 69.9363 21.1027C69.5989 21.4385 69.2162 21.7473 68.9235 22.1244C68.8106 22.2697 68.7278 22.4164 68.5414 22.4659C68.1213 21.6771 67.03 20.4298 66.3507 19.8654C66.2585 19.7888 66.2422 19.7919 66.1487 19.7056C65.1329 18.7674 63.8388 17.966 62.5842 17.3884C62.2508 17.235 61.979 17.1184 61.6334 16.981C61.4574 16.911 61.3117 16.8523 61.148 16.7872C60.9733 16.7179 60.7958 16.6707 60.6097 16.601C59.9491 16.3536 59.1881 16.1647 58.4624 15.9853C58.1034 15.8964 57.6863 15.8164 57.3311 15.7572C53.6152 15.1374 49.4954 15.2431 45.9229 16.3991C43.2406 17.2671 41.0559 18.3493 39.044 20.4258C37.7836 21.7267 36.8473 23.5797 36.238 25.2541C36.0585 25.7475 35.8757 26.3846 35.7442 26.9267C35.2785 28.8474 35.0645 30.6948 35.0645 32.7856Z" fill="white"/>
<path id="Vector_2" fill-rule="evenodd" clip-rule="evenodd" d="M3.5836 4.2188H107.19V78.44H3.5836V4.2188ZM0 82.0001H110.774V0.658691H0V82.0001Z" fill="white"/>
<path id="Vector_3" fill-rule="evenodd" clip-rule="evenodd" d="M11.5215 33.1013V67.2603H22.9073V34.9039C22.9073 32.9463 23.0547 30.0165 24.1322 28.5049C25.2334 26.9598 27.3342 25.9811 29.258 25.9811C30.7241 25.9811 31.4316 26.0008 32.8473 26.4711C33.2337 26.5995 33.6182 26.7088 34.0018 26.8564C34.2477 26.951 34.9628 27.2233 35.2003 27.2429V16.2472L34.1084 16.0252C33.1635 15.8308 31.5549 15.5664 30.6199 15.5702C30.4173 15.571 30.1824 15.5821 29.9835 15.5714C29.7594 15.5595 29.6343 15.5144 29.3474 15.5244C29.1097 15.5326 29.0382 15.5734 28.76 15.5723C28.543 15.5714 28.2914 15.5596 28.0783 15.571C24.5175 15.762 20.6164 16.7765 17.8632 18.4916C12.9898 21.5275 11.5215 27.4758 11.5215 33.1013Z" fill="white"/>
<path id="Vector_4" fill-rule="evenodd" clip-rule="evenodd" d="M87.8647 46.5301V49.5945C88.1269 49.5338 88.3424 49.4136 88.5836 49.3172L92.1031 47.8566C93.7498 47.2064 95.4356 46.4379 97.0929 45.7836C97.3394 45.6862 97.5674 45.5935 97.7978 45.4924L99.2505 44.9078V41.7983C99.0081 41.8544 98.7679 41.9826 98.5376 42.0814L93.5477 44.1543C92.4703 44.6166 88.6146 46.1359 87.8647 46.5301Z" fill="white"/>
<path id="Vector_5" fill-rule="evenodd" clip-rule="evenodd" d="M87.8647 60.3651V63.4295C88.0333 63.4155 89.0544 62.9709 89.2972 62.8697L96.394 59.9156C96.8594 59.7112 97.3386 59.5326 97.8001 59.3298L99.2505 58.7427V55.6333L94.2864 57.6867C92.6481 58.3335 90.949 59.1072 89.2967 59.7597L87.8647 60.3651Z" fill="white"/>
<path id="Vector_6" fill-rule="evenodd" clip-rule="evenodd" d="M87.8647 53.4255L87.8668 56.403C87.9059 56.6112 88.0057 56.4855 88.188 56.4071C88.4779 56.2825 88.7739 56.1576 89.0501 56.0452C90.9782 55.2608 93.0745 54.3333 94.9669 53.5862C95.2714 53.466 95.5369 53.3617 95.8329 53.2298L98.3899 52.1648C98.6668 52.0432 98.9923 51.9389 99.2505 51.8032V48.7388C99.0385 48.7563 96.1172 50.0095 95.7054 50.174C95.4681 50.2687 95.2428 50.3596 95.002 50.4666C94.5126 50.6839 94.0545 50.8487 93.5649 51.0668L90.7156 52.2469C90.241 52.4364 89.7742 52.6471 89.3094 52.8327L87.8647 53.4255Z" fill="white"/>
<path id="Vector_7" fill-rule="evenodd" clip-rule="evenodd" d="M88.0015 67.2599H99.2511V62.5732C99.0846 62.587 98.0912 63.0345 97.8252 63.1395L89.3817 66.6483C89.1711 66.736 88.1536 67.1285 88.0015 67.2599Z" fill="white"/>
</g>
</svg>
