<svg width="168" height="130" viewBox="0 0 168 130" fill="none" xmlns="http://www.w3.org/2000/svg">
<g id="RM">
<path id="Vector" d="M71.128 46.0835L71.128 46.0835C71.7597 44.4448 72.7504 43.3285 74.0195 42.3752L74.0195 42.3751C74.2564 42.1973 74.5334 41.9941 74.8232 41.8337C78.1827 39.9744 82.3828 39.5461 85.9381 41.3773C86.2525 41.5392 86.6165 41.755 86.9126 41.982L86.9215 41.9888L86.9301 41.996L87.7235 42.663L87.7354 42.673L87.7466 42.6837C87.8973 42.8272 87.9953 42.9326 88.1313 43.1145L88.1313 43.1145C88.1946 43.1992 88.2384 43.2513 88.2862 43.3078L88.2939 43.317C88.3425 43.3744 88.3978 43.4397 88.4715 43.5367L88.4716 43.5368C90.5175 46.232 91.1312 50.5344 91.1312 54.6712V105.354H107.36V59.0725C107.36 56.6225 108.175 53.611 108.906 51.9181L108.906 51.9181C109.445 50.6701 110.101 49.544 110.821 48.4599C111.818 46.96 113.11 45.6575 114.486 44.5813L114.486 44.5813C118.055 41.7889 123.229 40.3643 127.534 42.6331C128.239 43.0046 128.89 43.4936 129.453 44.0341L129.475 44.0549L129.494 44.0782L130.906 45.8063L130.923 45.8269L130.937 45.8491C131.045 46.0141 131.142 46.189 131.228 46.3432C131.267 46.4127 131.303 46.478 131.337 46.5363C132.047 47.7598 132.488 49.053 132.836 50.493C133.455 53.0568 133.453 55.5314 133.452 58.0902C133.452 58.2281 133.451 58.3662 133.451 58.5046V58.5214V58.5382V58.555V58.5717V58.5885V58.6053V58.6221V58.6388V58.6556V58.6724V58.6892V58.7059V58.7227V58.7395V58.7563V58.773V58.7898V58.8066V58.8234V58.8401V58.8569V58.8737V58.8905V58.9073V58.924V58.9408V58.9576V58.9744V58.9911V59.0079V59.0247V59.0415V59.0582V59.075V59.0918V59.1086V59.1253V59.1421V59.1589V59.1757V59.1925V59.2092V59.226V59.2428V59.2596V59.2763V59.2931V59.3099V59.3267V59.3434V59.3602V59.377V59.3938V59.4105V59.4273V59.4441V59.4609V59.4776V59.4944V59.5112V59.528V59.5448V59.5615V59.5783V59.5951V59.6119V59.6286V59.6454V59.6622V59.679V59.6957V59.7125V59.7293V59.7461V59.7628V59.7796V59.7964V59.8132V59.8299V59.8467V59.8635V59.8803V59.8971V59.9138V59.9306V59.9474V59.9642V59.9809V59.9977V60.0145V60.0313V60.048V60.0648V60.0816V60.0984V60.1151V60.1319V60.1487V60.1655V60.1823V60.199V60.2158V60.2326V60.2494V60.2661V60.2829V60.2997V60.3165V60.3332V60.35V60.3668V60.3836V60.4003V60.4171V60.4339V60.4507V60.4675V60.4842V60.501V60.5178V60.5346V60.5513V60.5681V60.5849V60.6017V60.6184V60.6352V60.652V60.6688V60.6855V60.7023V60.7191V60.7359V60.7527V60.7694V60.7862V60.803V60.8198V60.8365V60.8533V60.8701V60.8869V60.9036V60.9204V60.9372V60.954V60.9707V60.9875V61.0043V61.0211V61.0378V61.0546V61.0714V61.0882V61.105V61.1217V61.1385V61.1553V61.1721V61.1888V61.2056V61.2224V61.2392V61.2559V61.2727V61.2895V61.3063V61.323V61.3398V61.3566V61.3734V61.3902V61.4069V61.4237V61.4405V61.4573V61.474V61.4908V61.5076V61.5244V61.5411V61.5579V61.5747V61.5915V61.6082V61.625V61.6418V61.6586V61.6754V61.6921V61.7089V61.7257V61.7425V61.7592V61.776V61.7928V61.8096V61.8263V61.8431V61.8599V61.8767V61.8934V61.9102V61.927V61.9438V61.9606V61.9773V61.9941V62.0109V62.0277V62.0444V62.0612V62.078V62.0948V62.1115V62.1283V62.1451V62.1619V62.1786V62.1954V62.2122V62.229V62.2458V62.2625V62.2793V62.2961V62.3129V62.3296V62.3464V62.3632V62.38V62.3967V62.4135V62.4303V62.4471V62.4638V62.4806V62.4974V62.5142V62.531V62.5477V62.5645V62.5813V62.5981V62.6148V62.6316V62.6484V62.6652V62.6819V62.6987V62.7155V62.7323V62.7491V62.7658V62.7826V62.7994V62.8162V62.8329V62.8497V62.8665V62.8833V62.9V62.9168V62.9336V62.9504V62.9671V62.9839V63.0007V63.0175V63.0342V63.051V63.0678V63.0846V63.1014V63.1181V63.1349V63.1517V63.1685V63.1852V63.202V63.2188V63.2356V63.2523V63.2691V63.2859V63.3027V63.3195V63.3362V63.353V63.3698V63.3866V63.4033V63.4201V63.4369V63.4537V63.4704V63.4872V63.504V63.5208V63.5375V63.5543V63.5711V63.5879V63.6047V63.6214V63.6382V63.655V63.6718V63.6885V63.7053V63.7221V63.7389V63.7556V63.7724V63.7892V63.806V63.8227V63.8395V63.8563V63.8731V63.8899V63.9066V63.9234V63.9402V63.957V63.9737V63.9905V64.0073V64.0241V64.0408V64.0576V64.0744V64.0912V64.1079V64.1247V64.1415V64.1583V64.1751V64.1918V64.2086V64.2254V64.2422V64.2589V64.2757V64.2925V64.3093V64.326V64.3428V64.3596V64.3764V64.3932V64.4099V64.4267V64.4435V64.4603V64.477V64.4938V64.5106V64.5274V64.5441V64.5609V64.5777V64.5945V64.6112V64.628V64.6448V64.6616V64.6784V64.6951V64.7119V64.7287V64.7455V64.7622V64.779V64.7958V64.8126V64.8293V64.8461V64.8629V64.8797V64.8964V64.9132V64.93V64.9468V64.9636V64.9803V64.9971V65.0139V65.0307V65.0474V65.0642V65.081V65.0978V65.1145V65.1313V65.1481V65.1649V65.1816V65.1984V65.2152V65.232V65.2488V65.2655V65.2823V65.2991V65.3159V65.3326V65.3494V65.3662V65.383V65.3997V65.4165V65.4333V65.4501V65.4669V65.4836V65.5004V65.5172V65.534V65.5507V65.5675V65.5843V65.6011V65.6178V65.6346V65.6514V65.6682V65.6849V65.7017V65.7185V65.7353V65.7521V65.7688V65.7856V65.8024V65.8192V65.8359V65.8527V65.8695V65.8863V65.903V65.9198V65.9366V65.9534V65.9701V65.9869V66.0037V66.0205V66.0373V66.054V66.0708V66.0876V66.1044V66.1211V66.1379V66.1547V66.1715V66.1882V66.205V66.2218V66.2386V66.2554V66.2721V66.2889V66.3057V66.3225V66.3392V66.356V66.3728V66.3896V66.4063C133.5 66.3838 133.549 66.3608 133.598 66.3375C133.683 66.2971 133.775 66.2532 133.857 66.2182C133.857 66.218 133.858 66.2177 133.859 66.2174L139.209 63.8978L139.217 63.8943L139.217 63.8943C140.487 63.37 141.726 62.8187 142.97 62.2648L142.976 62.262C144.215 61.7105 145.459 61.1565 146.734 60.6303C146.735 60.6298 146.736 60.6293 146.738 60.6288L149.612 59.3873C149.613 58.5515 149.617 57.7429 149.622 56.9566C149.66 50.1893 149.689 45.0779 147.079 38.5705C146.948 38.2429 146.828 37.997 146.689 37.7102C146.657 37.6443 146.624 37.5762 146.589 37.5045L145.482 35.4125C144.238 33.2339 142.295 30.9828 140.381 29.5003C140.206 29.3651 140.057 29.2531 139.903 29.1381C139.77 29.0379 139.633 28.9353 139.473 28.8129L139.473 28.8128C138.577 28.1247 137.645 27.6116 136.588 27.058L134.403 26.1115C133.627 25.8425 132.86 25.5788 132.04 25.3965C127.089 24.2958 122.516 24.6076 117.792 26.2423C117.25 26.4298 116.776 26.6062 116.266 26.8184C115.281 27.2286 114.407 27.6681 113.444 28.1636C113.164 28.3082 112.933 28.4461 112.689 28.5913C112.519 28.6932 112.342 28.7988 112.137 28.9129L112.137 28.9129C110.743 29.6909 109.646 30.5996 108.502 31.5474C108.128 31.8578 107.748 32.1724 107.351 32.4881L71.128 46.0835ZM71.128 46.0835C70.5431 47.6014 70.182 50.2685 69.9586 52.9073C69.7333 55.5685 69.6429 58.276 69.6233 59.9211C69.6212 60.0963 69.6077 60.2371 69.5916 60.4041C69.5902 60.4192 69.5887 60.4345 69.5872 60.4501C69.5693 60.6383 69.5509 60.8504 69.5519 61.1328C69.5556 62.1411 69.5218 63.1813 69.4867 64.2334L69.4841 64.3109C69.4499 65.3345 69.4154 66.3688 69.4155 67.3781L69.4153 82.3558L69.9153 82.3568L69.4153 82.3568V82.3567C69.4147 82.6812 69.4343 82.9302 69.4522 83.1576L69.4523 83.158C69.4701 83.3845 69.4861 83.5863 69.4847 83.8438C69.4807 84.5595 69.4818 85.2771 69.4828 85.9924C69.4833 86.3192 69.4838 86.6455 69.4838 86.9709C69.4838 87.5361 69.5012 88.0364 69.5183 88.5247L69.5185 88.5303C69.5355 89.018 69.5521 89.4934 69.5521 90.0234C69.5521 92.6565 69.5863 95.2891 69.6204 97.9215L69.6205 97.934C69.6526 100.405 69.6846 102.877 69.6885 105.354H53.8702V51.5477C53.8702 48.2899 54.189 45.4177 54.8818 42.4313C55.0772 41.5891 55.3482 40.6035 55.6112 39.848L55.6112 39.848C56.5191 37.24 57.9022 34.3945 59.7349 32.4175C62.6924 29.2272 65.9025 27.5589 69.8961 26.2082C75.185 24.4194 81.3073 24.2506 86.8444 25.2159L86.9303 24.7233L86.8444 25.2159C87.3722 25.3079 87.9866 25.4313 88.5102 25.5667L88.5103 25.5667C89.6104 25.851 90.7269 26.1413 91.6894 26.5181C91.8296 26.573 91.9663 26.6195 92.0894 26.6614L92.1224 26.6727C92.2577 26.7188 92.3764 26.76 92.4913 26.8077C92.6235 26.8626 92.7448 26.9133 92.8699 26.9656C92.9811 27.0121 93.0952 27.0598 93.2226 27.1128L93.2227 27.1129C93.7352 27.3258 94.1365 27.5057 94.6308 27.7435C96.4848 28.6356 98.388 29.8696 99.8727 31.3029L99.8729 31.303C99.9598 31.3869 100.017 31.4329 100.073 31.4747C100.08 31.4802 100.087 31.4853 100.094 31.4902C100.127 31.5152 100.152 31.5338 100.197 31.5725C100.679 31.9916 101.326 32.6815 101.935 33.4267C102.545 34.1743 103.088 34.944 103.381 35.5184L103.566 35.8824L103.96 35.7732C104.216 35.7021 104.395 35.5593 104.525 35.4157C104.609 35.324 104.694 35.2044 104.755 35.1192C104.774 35.0927 104.79 35.0695 104.803 35.0515C105.083 34.6755 105.403 34.3643 105.752 34.0252C105.924 33.8575 106.104 33.683 106.289 33.4905C106.508 33.2628 106.591 33.1809 106.822 32.9893L106.822 32.9893M71.128 46.0835L106.822 32.9893M106.822 32.9893C106.942 32.8895 107.037 32.7918 107.112 32.7136M106.822 32.9893L107.112 32.7136M107.112 32.7136L107.127 32.6985M107.112 32.7136L107.127 32.6985M107.127 32.6985C107.207 32.6159 107.27 32.5524 107.351 32.4882L107.127 32.6985ZM140.197 28.733C140.06 28.6306 139.923 28.5275 139.778 28.4162L140.687 29.105C140.517 28.9736 140.358 28.8537 140.197 28.733ZM70.1889 105.854C70.1889 105.687 70.1887 105.521 70.1885 105.354L69.6889 105.854H70.1889Z" fill="white" stroke="black"/>
<path id="Vector_2" d="M5.92289 6.04097H5.42289V6.54097V123.459V123.959H5.92289H162.077H162.577V123.459V6.54097V6.04097H162.077H5.92289ZM166.978 1.43286V128.567H1.02173V1.43286H166.978Z" fill="white" stroke="black"/>
<path id="Vector_3" d="M53.0754 42.1656C53.0013 42.1405 52.9243 42.1135 52.8463 42.0854C52.4949 41.959 52.1399 41.8174 51.9555 41.7432C51.5499 41.5801 51.1321 41.4417 50.7313 41.309C50.5473 41.2481 50.3669 41.1883 50.193 41.1279C47.9822 40.3602 46.8514 40.3284 44.6192 40.3284C41.5675 40.3284 38.2407 41.9412 36.4805 44.5222C35.6017 45.8109 35.1277 47.6548 34.8664 49.5109C34.6031 51.3817 34.5475 53.3332 34.5475 54.8841V105.354H18.387V52.0445C18.387 43.2247 20.5955 34.0867 27.718 29.4495L27.718 29.4495C31.7764 26.807 37.5654 25.2263 42.8691 24.9289C43.0713 24.9176 43.2873 24.922 43.5164 24.9266C43.6299 24.9289 43.7466 24.9312 43.8664 24.9318L43.8665 24.9318C44.1076 24.9328 44.2646 24.9143 44.4039 24.8947C44.4198 24.8924 44.4351 24.8902 44.4499 24.8881C44.5572 24.8728 44.6419 24.8607 44.7721 24.8559L53.0754 42.1656ZM53.0754 42.1656V25.8998L51.8257 25.6342L51.8245 25.634C50.4022 25.3281 48.0242 24.9227 46.674 24.9284L53.0754 42.1656ZM46.4087 24.9324C46.1766 24.937 45.9103 24.9422 45.6848 24.9296L46.4087 24.9324ZM46.4087 24.9324C46.5048 24.9305 46.5949 24.9287 46.6739 24.9284L46.4087 24.9324ZM45.2934 24.8881C45.4021 24.903 45.5353 24.9212 45.6846 24.9296L44.7722 24.8559C44.954 24.8493 45.0812 24.8606 45.2062 24.8764C45.2331 24.8798 45.2622 24.8838 45.2934 24.8881Z" fill="white" stroke="black"/>
<path id="Vector_4" d="M139.149 74.8265L139.149 74.8264L139.141 74.83L133.839 77.1295C133.723 77.178 133.596 77.2372 133.481 77.2902C133.471 77.2948 133.461 77.2994 133.452 77.3038V73.504C134.165 73.1533 135.664 72.5029 137.245 71.8279C137.803 71.5901 138.368 71.3502 138.906 71.1216C140.095 70.6168 141.155 70.1668 141.719 69.9141L149.237 66.6498L149.237 66.6499L149.242 66.6475C149.359 66.5953 149.464 66.5449 149.563 66.4977C149.58 66.4899 149.596 66.4821 149.612 66.4745V70.3115L147.729 71.1036L147.721 71.1067L147.714 71.1101C147.375 71.2655 147.038 71.4088 146.669 71.561C145.413 72.0794 144.147 72.6425 142.891 73.2015L142.887 73.2033C141.629 73.7628 140.381 74.318 139.149 74.8265Z" fill="white" stroke="black"/>
<path id="Vector_5" d="M134.911 98.4795L134.911 98.4797C134.849 98.5064 134.762 98.5453 134.656 98.5923C134.426 98.6946 134.11 98.835 133.793 98.9708C133.675 99.021 133.56 99.0696 133.452 99.1141V95.3183L135.306 94.4988C136.557 93.9825 137.824 93.4189 139.081 92.8597L139.084 92.8585C140.344 92.2979 141.595 91.7417 142.821 91.2357L142.821 91.2357L142.829 91.2324L149.612 88.2997V92.1056L147.731 92.9013L147.724 92.9042L147.717 92.9074C147.378 93.0635 147.03 93.2108 146.674 93.3618L146.672 93.3625C146.32 93.5117 145.959 93.6645 145.603 93.8281L134.911 98.4795Z" fill="white" stroke="black"/>
<path id="Vector_6" d="M149.612 77.3899V81.1952C149.51 81.2417 149.401 81.2879 149.284 81.3356C149.237 81.3549 149.189 81.3745 149.14 81.3945C148.967 81.4648 148.782 81.5398 148.611 81.6182L144.762 83.2939L144.762 83.2938L144.75 83.2991C144.329 83.4952 143.949 83.6517 143.506 83.8345L143.465 83.8515L143.465 83.8515C141.849 84.5182 140.118 85.2837 138.396 86.0446C137.087 86.6232 135.784 87.1992 134.543 87.7271L134.543 87.7271C134.192 87.8761 133.822 88.0386 133.454 88.2026L133.452 84.3901L135.324 83.5873C135.677 83.44 136.029 83.2833 136.377 83.1285L136.386 83.1246C136.74 82.9674 137.089 82.8121 137.441 82.6655L137.441 82.6655L137.447 82.6629L141.741 80.8038L141.742 80.804L141.754 80.7983C142.113 80.6309 142.462 80.4835 142.82 80.3325L142.833 80.327C143.185 80.1786 143.546 80.0264 143.919 79.8531L143.919 79.853C144.273 79.6889 144.605 79.5489 144.962 79.4L144.962 79.4C145.125 79.3317 145.547 79.1462 146.085 78.91C146.58 78.6923 147.173 78.4317 147.753 78.1799C148.361 77.9155 148.958 77.6596 149.421 77.4684C149.488 77.4407 149.552 77.4145 149.612 77.3899Z" fill="white" stroke="black"/>
<path id="Vector_7" d="M149.612 99.1839V105.354H135.425C135.429 105.352 135.433 105.35 135.436 105.349C135.437 105.349 135.437 105.349 135.437 105.349L148.158 99.8233C148.277 99.7743 148.487 99.6801 148.727 99.5729C148.909 99.4918 149.107 99.4032 149.295 99.3211C149.404 99.2731 149.511 99.2267 149.612 99.1839Z" fill="white" stroke="black"/>
</g>
</svg>
